<?xml version="1.0" encoding="UTF-8" standalone="no"?>
<!-- Created with Inkscape (http://www.inkscape.org/) -->

<svg
   xmlns:dc="http://purl.org/dc/elements/1.1/"
   xmlns:cc="http://creativecommons.org/ns#"
   xmlns:rdf="http://www.w3.org/1999/02/22-rdf-syntax-ns#"
   xmlns:svg="http://www.w3.org/2000/svg"
   xmlns="http://www.w3.org/2000/svg"
   xmlns:xlink="http://www.w3.org/1999/xlink"
   xmlns:inkscape="http://www.inkscape.org/namespaces/inkscape"
   version="1.1"
   width="539"
   height="541"
   id="svg2">
  <metadata
     id="metadata8">
    <rdf:RDF>
      <cc:Work
         rdf:about="">
        <dc:format>image/svg+xml</dc:format>
        <dc:type
           rdf:resource="http://purl.org/dc/dcmitype/StillImage" />
        <dc:title></dc:title>
      </cc:Work>
    </rdf:RDF>
  </metadata>
  <defs
     id="defs6">
    <inkscape:path-effect
       effect="spiro"
       id="path-effect3823" />
    <inkscape:path-effect
       effect="spiro"
       id="path-effect3819" />
    <inkscape:path-effect
       effect="spiro"
       id="path-effect3815" />
    <inkscape:path-effect
       effect="spiro"
       id="path-effect3811" />
    <inkscape:path-effect
       effect="spiro"
       id="path-effect3807" />
    <linearGradient
       id="linearGradient3793">
      <stop
         id="stop3795"
         style="stop-color:#000000;stop-opacity:1"
         offset="0" />
      <stop
         id="stop3797"
         style="stop-color:#000000;stop-opacity:0"
         offset="1" />
    </linearGradient>
    <inkscape:path-effect
       effect="spiro"
       id="path-effect3811-1" />
    <linearGradient
       x1="-37.617714"
       y1="24.89072"
       x2="-4.9854693"
       y2="24.89072"
       id="linearGradient3775"
       xlink:href="#linearGradient3793"
       gradientUnits="userSpaceOnUse" />
  </defs>
  <g
     id="g3079">
    <path
       d="m -5.3033009,24.89072 c 0,9.274953 -7.1626791,16.793787 -15.9982911,16.793787 -8.835612,0 -15.998291,-7.518834 -15.998291,-16.793787 0,-9.274952 7.162679,-16.7937866 15.998291,-16.7937866 8.835612,0 15.9982911,7.5188346 15.9982911,16.7937866 z"
       transform="matrix(-16.328611,0,0,15.43636,-79.46791,-112.71184)"
       id="path3799"
       style="fill:none;stroke:url(#linearGradient3775);stroke-width:0.63566321;stroke-miterlimit:4;stroke-opacity:1" />
    <path
       d="m 55.861437,30.105633 c 0,11.764544 -11.39697,21.301592 -25.455845,21.301592 -14.058875,0 -25.4558449,-9.537048 -25.4558449,-21.301592 0,-11.764545 11.3969699,-21.3015921 25.4558449,-21.3015921 14.058875,0 25.455845,9.5370471 25.455845,21.3015921 z"
       transform="matrix(9.4295319,0,0,11.199004,-18.36083,-64.758938)"
       id="path3013"
       style="fill:#ffffff;fill-opacity:1;stroke:#254c9c;stroke-width:3.29138184;stroke-miterlimit:4;stroke-opacity:1" />
    <path
       d="m 485.62148,198.07744 -120.85008,0 0,-87.47399 c -4.82705,-12.784643 -13.89967,-23.925025 -25.44213,-31.240699 -9.6584,-6.121546 -20.762,-9.519346 -31.80265,-12.496278 -10.44522,-2.816386 -21.02367,-5.327192 -31.80266,-6.248146 -17.13366,-1.463897 -34.46364,1.142393 -50.88426,6.248146 -13.5993,4.228505 -26.75347,10.221532 -38.16318,18.744425 -7.16486,5.352051 -13.60267,11.676104 -19.08159,18.744422 l 0,343.64779 c 9.7477,7.5645 20.46336,13.88028 31.80265,18.74442 18.05104,7.74323 37.61659,11.76731 57.24479,12.49629 19.24257,0.71466 38.53295,-1.70339 57.24478,-6.24815 6.51432,-1.58221 12.99763,-3.43297 19.08159,-6.24814 C 339.07492,463.92208 344.70867,460.15577 350,456 c 3.72218,-2.92337 7.32933,-6.09254 10,-10 1.97342,-2.88731 3.38474,-6.15425 4.15106,-9.56654 C 364.91738,433.02117 365,429.49728 365,426 l 0,-70 -25,0 0,-85 160,0 -14.37852,-72.92256"
       id="path3805"
       style="fill:#254c9c;fill-opacity:1;stroke:none" />
    <path
       d="m 320.24768,235.56629 -57.24479,-93.72212 c -2.2929,-2.54188 -3.60254,-5.94898 -3.60254,-9.37222 0,-3.42323 1.30964,-6.83033 3.60254,-9.37221 1.60889,-1.7836 3.66148,-3.13026 5.85158,-4.11675 2.19011,-0.9865 4.52139,-1.62526 6.86949,-2.13139 6.28125,-1.35391 12.90363,-1.7663 19.0816,0 8.93743,2.55524 16.36744,9.85397 19.08159,18.74443 l 0,12.49628 12.72107,0 0,-62.481412 -12.72107,0 -6.36053,6.248132 c -4.12936,-2.299218 -8.37721,-4.385611 -12.72106,-6.248132 -15.99817,-6.859568 -34.04025,-10.638413 -50.88426,-6.248147 -9.18997,2.395296 -17.61959,7.11102 -25.44212,12.496279 -7.40354,5.096816 -14.51305,11.00373 -19.0816,18.74442 -4.41828,7.48608 -6.20033,16.30139 -6.36053,24.99258 -0.19743,10.71104 1.99093,21.4595 6.36053,31.2407 l 57.24479,81.22585"
       id="path3809"
       style="fill:#fefefe;fill-opacity:1;stroke:none" />
    <path
       d="m 320.24768,460.49938 0,-37.48884 12.72106,0 0,-18.74443 -12.72106,0 0,-24.99257 -19.08158,0 0,24.99257 -12.72108,0 L 305,321 l -25,0 -16.99711,102.01054 38.16321,0 0,37.48884 19.08158,0"
       id="path3813"
       style="fill:#fdfdfd;fill-opacity:1;stroke:none" />
    <path
       d="m 193.03705,341.78471 0,99.97026 c 3.12571,5.64589 7.78529,10.43284 13.34485,13.70964 5.55957,3.27679 12.00442,5.03477 18.4578,5.03477 6.45339,0 12.89824,-1.75797 18.45781,-5.03477 5.55957,-3.27679 10.21915,-8.06374 13.34486,-13.70964 l 0,-99.97026 c -3.1257,-5.6459 -7.78528,-10.43286 -13.34485,-13.70966 -5.55957,-3.27681 -12.00443,-5.03478 -18.45782,-5.03478 -6.45339,0 -12.89824,1.75798 -18.45781,5.03478 -5.55956,3.2768 -10.21914,8.06376 -13.34484,13.70966"
       id="path3821"
       style="fill:#fefefe;fill-opacity:1;stroke:none" />
    <path
       d="m 212.11865,435.50681 0,-87.47398 c 2.99069,-3.87189 7.82863,-6.24812 12.72105,-6.24812 4.89243,0 9.73038,2.37622 12.72107,6.24812 l 0,87.47398 c -2.99068,3.87192 -7.82864,6.24816 -12.72107,6.24816 -4.89243,0 -9.73038,-2.37625 -12.72105,-6.24816"
       id="path3817"
       style="fill:#254c9c;fill-opacity:1;stroke:none" />
    <path
       d="m 200.01184,160.5466 57.24478,93.72213 c 2.2929,2.54188 3.60254,5.94898 3.60254,9.37221 0,3.42324 -1.30964,6.83034 -3.60254,9.37222 -1.60889,1.7836 -3.66147,3.13026 -5.85158,4.11675 -2.19011,0.9865 -4.52138,1.62526 -6.86948,2.13139 -6.28125,1.35392 -12.90363,1.76631 -19.08161,0 -8.93743,-2.55524 -16.36743,-9.85397 -19.08158,-18.74443 l 0,-12.49628 -12.72107,0 0,62.48141 12.72107,0 6.36053,-6.24813 c 4.12936,2.29922 8.3772,4.38561 12.72105,6.24813 15.99818,6.85957 34.04025,10.63843 50.88427,6.24816 9.18997,-2.3953 17.61959,-7.11103 25.44212,-12.49629 7.40354,-5.09682 14.51305,-11.00374 19.0816,-18.74444 4.41827,-7.48607 6.20033,-16.30137 6.36053,-24.99256 0.19743,-10.71104 -1.99093,-21.45951 -6.36053,-31.24071 l -57.2448,-81.22585"
       id="path3809-7"
       style="fill:#fefefe;fill-opacity:1;stroke:none" />
  </g>
</svg>
